<?xml version="1.0" standalone="no"?>
<!DOCTYPE svg PUBLIC "-//W3C//DTD SVG 20010904//EN"
 "http://www.w3.org/TR/2001/REC-SVG-20010904/DTD/svg10.dtd">
<svg version="1.0" xmlns="http://www.w3.org/2000/svg"
 width="700.000000pt" height="700.000000pt" viewBox="0 0 700.000000 700.000000"
 preserveAspectRatio="xMidYMid meet">
<g transform="translate(0.000000,700.000000) scale(0.100000,-0.100000)"
fill="#000000" stroke="none">
<path d="M0 3500 l0 -3500 1543 1 c848 1 1533 3 1522 6 -271 57 -394 97 -569
185 -314 157 -560 372 -750 657 -132 198 -238 455 -272 660 -23 141 -15 431
16 576 44 208 121 389 228 538 112 154 311 323 475 403 31 16 57 31 57 34 0 3
-57 22 -127 43 -155 45 -359 143 -462 222 l-74 56 -25 -23 c-45 -42 -156 -192
-222 -300 -35 -59 -65 -106 -66 -105 -2 3 -255 444 -362 630 l-85 149 13 41
c37 126 133 272 267 405 82 81 93 97 93 127 0 19 -4 35 -9 35 -16 0 -121 -92
-201 -176 -82 -86 -143 -168 -210 -282 -24 -40 -46 -69 -50 -65 -13 15 10
1135 23 1163 19 38 124 117 212 160 103 50 239 95 378 123 l109 22 39 77 39
77 -53 10 c-85 18 -426 60 -541 67 -58 4 -106 9 -106 11 0 9 534 588 649 704
145 146 151 148 302 129 157 -19 323 -79 503 -182 l79 -46 59 22 c32 11 58 24
58 28 0 13 -229 211 -345 298 -62 47 -156 110 -209 139 -53 30 -96 58 -96 62
0 4 10 9 23 11 12 3 209 67 438 142 228 75 427 136 440 136 39 0 161 -44 260
-94 179 -91 377 -241 526 -401 l80 -85 82 0 c58 0 81 4 81 13 0 6 -9 57 -19
112 -35 178 -82 467 -77 472 3 3 156 1 341 -3 l337 -9 24 -30 c49 -60 266
-525 290 -620 6 -23 21 -34 88 -63 309 -136 643 -340 885 -540 334 -277 520
-593 523 -887 1 -155 -64 -307 -179 -416 -128 -122 -276 -174 -553 -194 l-85
-6 56 58 c75 77 101 130 102 209 1 71 -26 126 -102 207 -123 132 -429 273
-809 373 -74 20 -140 33 -147 30 -14 -5 -61 -93 -54 -101 3 -2 171 -65 375
-139 458 -166 503 -183 532 -198 75 -39 68 -178 -19 -351 -35 -69 -13 -69
-224 -3 -345 109 -886 233 -1205 277 -288 39 -578 36 -661 -6 -43 -23 -89 -74
-89 -100 0 -34 54 -92 113 -122 69 -34 106 -47 293 -98 213 -59 323 -96 474
-162 755 -328 1246 -889 1384 -1583 83 -420 52 -845 -89 -1210 -90 -233 -268
-517 -437 -696 -280 -295 -690 -516 -1093 -588 -71 -13 111 -14 1593 -15
l1672 -1 0 3500 0 3500 -3500 0 -3500 0 0 -3500z"/>
<path d="M3750 6904 c0 -6 23 -138 50 -294 28 -156 50 -288 50 -292 0 -4 -65
-8 -144 -8 l-144 0 -59 67 c-82 93 -260 252 -362 322 -142 97 -341 191 -405
191 -19 0 -638 -197 -695 -221 -13 -5 -20 -13 -15 -18 5 -4 56 -42 114 -83
132 -96 235 -181 378 -315 l114 -106 -94 -32 c-51 -18 -114 -41 -139 -51 l-45
-18 -86 52 c-99 60 -289 144 -375 166 -75 19 -192 30 -235 22 -27 -5 -73 -48
-259 -249 -371 -398 -405 -437 -388 -448 8 -5 25 -9 39 -9 87 0 578 -74 593
-89 4 -4 -14 -43 -41 -87 -26 -44 -59 -105 -72 -135 l-24 -55 -116 -22 c-242
-45 -433 -121 -525 -206 l-45 -41 -8 -420 c-4 -231 -6 -422 -4 -425 2 -3 13 7
25 21 12 14 42 49 67 79 80 95 333 300 371 300 5 0 9 -57 9 -127 l0 -128 -64
-52 c-119 -97 -226 -237 -281 -366 l-27 -64 179 -313 c98 -172 183 -313 188
-313 6 0 38 40 72 89 70 101 195 241 229 256 20 9 32 3 99 -50 145 -118 291
-189 501 -247 66 -18 165 -38 220 -45 54 -6 115 -15 134 -19 l35 -7 -65 -23
c-335 -120 -550 -266 -710 -481 -210 -281 -309 -748 -235 -1105 100 -481 444
-936 899 -1188 440 -244 995 -304 1468 -158 639 198 1114 665 1312 1290 70
223 81 303 80 601 0 247 -2 275 -27 405 -82 418 -255 743 -555 1041 -196 195
-376 321 -657 459 -206 101 -378 167 -563 215 -324 86 -447 150 -488 256 -16
41 -16 47 0 88 44 115 139 159 376 173 297 17 1015 -113 1585 -288 236 -72
211 -71 241 -3 32 70 45 191 23 198 -82 28 -973 357 -976 360 -6 6 104 223
117 231 13 8 330 -76 478 -126 482 -166 722 -373 698 -602 -3 -32 -15 -79 -26
-104 l-20 -46 51 7 c249 33 438 192 495 416 40 159 -23 383 -168 592 -191 276
-557 559 -1023 790 -71 36 -161 77 -199 93 -37 16 -71 36 -74 44 -58 169 -257
604 -289 633 -15 14 -60 18 -290 24 -168 4 -273 3 -273 -2z m293 -274 c60
-104 110 -190 114 -190 3 0 2 81 -2 180 l-7 180 56 0 c48 0 58 -3 72 -25 27
-41 97 -218 159 -404 55 -163 60 -174 89 -186 17 -6 76 -29 131 -51 258 -100
603 -299 790 -456 184 -154 409 -418 485 -567 60 -120 80 -263 51 -371 -19
-69 -94 -173 -164 -226 -50 -37 -146 -94 -159 -94 -2 0 -3 37 -3 83 0 73 -4
90 -33 149 -106 215 -475 433 -923 547 -121 30 -367 76 -373 70 -16 -18 -155
-312 -151 -319 12 -19 200 -94 605 -240 309 -111 334 -122 356 -155 18 -27 24
-97 12 -128 -7 -16 -11 -16 -59 8 -28 15 -101 39 -163 55 -61 15 -159 42 -216
59 -383 111 -904 212 -1180 227 -174 10 -372 -19 -464 -68 -41 -22 -110 -95
-127 -136 -58 -134 11 -262 190 -356 92 -48 128 -61 307 -106 243 -61 556
-207 844 -395 346 -224 649 -589 794 -955 96 -244 121 -392 121 -725 0 -212
-3 -254 -23 -354 -59 -289 -183 -568 -352 -791 -199 -262 -603 -527 -950 -623
-181 -51 -269 -62 -490 -61 -183 0 -218 3 -330 27 -251 53 -564 185 -727 305
-334 249 -574 614 -650 992 -13 62 -18 134 -18 270 0 161 4 198 24 280 105
423 352 733 693 869 138 56 227 72 413 78 189 6 297 -6 496 -54 l114 -27 -90
-8 c-295 -26 -482 -112 -673 -313 -139 -145 -217 -295 -258 -496 -22 -110 -15
-321 15 -432 86 -325 339 -590 656 -690 286 -90 602 -46 853 120 82 55 216
186 267 263 244 366 231 858 -32 1229 -146 206 -423 406 -683 494 -251 85
-366 100 -755 102 -268 1 -344 5 -405 18 -267 60 -465 172 -595 336 l-50 63
-44 -6 c-97 -13 -211 -106 -285 -232 l-42 -71 -38 71 -38 71 31 77 c17 43 57
131 90 197 33 65 57 121 54 125 -25 25 -144 -16 -239 -81 l-67 -46 -19 23
c-22 28 -19 50 19 128 38 81 135 195 229 270 l83 67 -7 75 c-4 41 -7 118 -7
170 0 53 -4 98 -10 102 -17 13 -100 9 -145 -7 -63 -22 -159 -95 -234 -177
l-66 -72 0 59 c0 58 2 63 68 150 84 113 217 252 288 301 30 21 54 41 54 45 0
14 -71 24 -155 23 -70 -1 -162 -18 -217 -39 -33 -13 -19 18 30 65 83 80 292
167 529 221 l101 23 36 91 c20 51 60 127 88 170 l51 78 -32 28 c-20 17 -65 36
-112 49 -84 22 -318 59 -384 61 -83 1 -83 8 -3 86 l74 71 98 7 c135 10 321 1
375 -19 l44 -16 -7 42 c-15 98 -94 221 -173 269 l-35 22 38 38 c36 37 42 39
97 39 93 0 323 -87 542 -206 l83 -45 58 37 c76 49 181 97 271 124 l73 22 -32
46 c-78 114 -294 314 -451 417 -32 21 -54 41 -50 45 4 4 42 17 82 30 l75 22
112 -56 c130 -65 247 -149 322 -230 50 -56 52 -57 52 -29 0 96 -73 287 -138
364 -19 22 -31 43 -27 47 4 4 26 7 51 6 63 -1 228 -85 344 -175 52 -40 164
-140 247 -223 l153 -149 212 7 c117 4 216 10 219 14 4 4 -18 124 -47 267 -29
143 -53 270 -54 283 0 19 5 22 38 22 l38 0 107 -190z m-486 -3851 c281 -64
516 -283 606 -564 72 -223 58 -433 -44 -640 -85 -173 -211 -303 -378 -389
-118 -61 -212 -86 -346 -93 -251 -12 -467 69 -643 240 -118 115 -181 219 -229
374 -24 79 -27 104 -27 248 -1 156 0 162 33 257 111 322 386 549 711 587 97
11 214 4 317 -20z"/>
<path d="M3065 6290 c-82 -16 -162 -29 -177 -29 -15 -1 -30 -6 -33 -11 -8 -13
57 -230 68 -230 5 0 23 11 41 25 46 35 155 83 229 100 34 8 103 15 152 15 l90
1 -85 79 c-61 57 -92 79 -110 79 -14 -1 -92 -14 -175 -29z"/>
<path d="M4052 6273 c-10 -20 -35 -143 -30 -148 2 -2 50 4 108 12 l105 15 89
-31 c48 -17 91 -31 96 -31 8 0 -31 168 -44 189 -5 7 -58 11 -161 11 -137 0
-155 -2 -163 -17z"/>
<path d="M3580 6020 c-63 -4 -153 -13 -200 -19 -85 -11 -85 -12 -136 -65 -91
-95 -116 -184 -75 -265 21 -40 93 -111 114 -111 500 -1 813 -19 980 -57 98
-22 113 -21 190 16 147 70 205 184 167 323 -11 37 -12 38 -119 72 -265 86
-613 126 -921 106z m392 -124 c99 -20 182 -50 242 -89 70 -45 121 -67 191 -82
l60 -12 -75 -23 c-276 -83 -406 -99 -556 -66 -96 21 -227 69 -283 105 -25 16
-66 39 -91 49 l-45 20 40 6 c22 4 85 23 140 44 183 67 241 74 377 48z"/>
<path d="M3825 5831 c-77 -10 -128 -27 -150 -51 -58 -64 84 -118 282 -107 214
12 285 95 119 141 -66 19 -175 26 -251 17z"/>
<path d="M1998 5778 c-58 -90 -109 -169 -113 -176 -8 -16 55 -203 67 -196 4 3
8 20 8 38 0 46 27 131 63 199 34 65 101 130 171 167 25 14 45 29 43 35 -3 10
-117 94 -127 95 -3 0 -53 -73 -112 -162z"/>
<path d="M2922 5875 c-118 -59 -235 -191 -302 -339 -31 -69 -73 -197 -66 -203
3 -3 25 9 51 27 107 74 296 141 433 155 39 4 72 8 72 10 0 2 -12 16 -27 32
-44 47 -67 125 -65 217 0 44 4 92 7 108 9 39 -14 37 -103 -7z"/>
<path d="M4765 5816 c-2 -6 -6 -33 -9 -59 -14 -114 -97 -222 -217 -283 -38
-19 -69 -39 -69 -44 0 -14 123 -49 210 -61 118 -15 250 5 367 57 l56 24 -6 48
c-15 123 -89 242 -179 286 -64 31 -148 49 -153 32z"/>
<path d="M2251 5746 c-106 -38 -209 -198 -227 -351 -16 -131 48 -245 135 -245
91 0 168 65 234 199 41 83 42 86 42 190 0 88 -3 112 -20 140 -38 64 -101 90
-164 67z m66 -205 c18 -14 33 -30 33 -36 0 -5 -33 -49 -74 -97 l-74 -87 -46
36 c-39 30 -44 38 -34 52 67 88 143 169 152 164 6 -4 26 -18 43 -32z"/>
<path d="M5290 5582 c0 -128 -73 -254 -178 -309 -34 -18 -58 -34 -54 -36 4 -2
45 -17 92 -32 163 -53 297 -133 413 -244 70 -67 167 -201 201 -279 11 -23 24
-41 30 -39 6 2 25 27 43 56 100 166 17 398 -236 664 -70 73 -190 179 -273 241
l-38 28 0 -50z"/>
<path d="M3180 5374 c-283 -34 -500 -117 -659 -252 -50 -43 -116 -121 -108
-129 2 -2 28 7 58 21 154 67 484 154 674 176 101 11 257 12 325 1 l45 -7 -65
-13 c-240 -48 -689 -180 -865 -255 -74 -31 -62 -32 145 -12 506 51 935 44
1228 -18 105 -23 102 -24 102 35 0 82 29 258 55 334 16 46 21 71 14 76 -14 8
-222 36 -364 49 -152 14 -447 11 -585 -6z"/>
<path d="M1802 5178 c-28 -51 -74 -146 -101 -210 -178 -416 -154 -680 70 -783
84 -38 154 -47 374 -49 165 -1 213 2 275 18 232 57 367 186 401 382 11 63 8
188 -5 201 -3 3 -39 0 -78 -7 -105 -19 -269 -17 -353 4 -129 33 -228 88 -319
179 -68 68 -90 99 -128 177 -25 52 -52 114 -59 138 -7 23 -15 42 -19 42 -4 0
-30 -42 -58 -92z m426 -545 c55 -45 74 -77 80 -132 15 -158 -141 -269 -278
-198 -119 60 -146 203 -57 304 45 51 80 64 155 59 52 -3 70 -9 100 -33z"/>
<path d="M1540 5028 c-41 -16 -78 -32 -82 -37 -7 -6 -53 -205 -72 -308 l-5
-33 73 0 73 0 7 61 c10 88 42 205 76 278 17 35 30 65 30 67 0 9 -28 1 -100
-28z"/>
<path d="M2736 4109 c-126 -104 -301 -171 -495 -189 -129 -12 -252 -2 -419 36
-63 14 -117 23 -120 19 -14 -13 31 -184 68 -260 115 -237 338 -345 651 -315
101 9 108 12 254 84 271 134 385 247 385 384 0 70 -30 124 -105 190 -42 37
-145 104 -156 101 -2 0 -31 -23 -63 -50z m-222 -282 c46 -26 86 -93 86 -144 0
-104 -101 -188 -204 -169 -46 9 -110 57 -126 95 -20 49 -9 133 25 176 50 67
144 85 219 42z"/>
<path d="M1453 4114 l-52 -25 14 -37 c23 -66 134 -315 144 -325 11 -11 86 6
95 22 3 4 -13 30 -36 57 -69 82 -92 145 -93 246 0 52 -4 88 -10 87 -5 0 -33
-12 -62 -25z"/>
<path d="M3208 3860 c-9 -39 -30 -94 -47 -123 -47 -82 -154 -201 -236 -263
-88 -66 -90 -61 50 -117 117 -46 197 -61 293 -54 142 10 216 62 289 202 78
151 90 236 43 312 -39 65 -166 113 -300 113 l-75 0 -17 -70z m162 -189 c30
-21 53 -84 45 -122 -3 -14 -18 -38 -33 -52 -57 -54 -121 -56 -171 -5 -105 108
35 265 159 179z"/>
<path d="M3770 3696 c0 -166 -86 -314 -240 -411 l-44 -28 88 -28 c288 -94 517
-266 663 -496 47 -73 47 -74 60 -49 45 86 55 237 23 361 -11 43 -20 81 -20 85
0 8 59 26 116 35 57 9 145 -9 222 -45 l64 -30 -19 31 c-38 58 -179 211 -271
292 -166 146 -381 277 -546 332 -41 14 -79 25 -85 25 -7 0 -11 -28 -11 -74z"/>
<path d="M4500 2899 c-22 -127 -67 -234 -134 -322 -20 -26 -36 -52 -36 -57 0
-6 13 -34 29 -63 67 -118 121 -341 121 -499 0 -43 3 -78 6 -78 11 0 105 90
151 144 53 61 106 163 129 243 l17 63 125 -203 c69 -111 127 -204 129 -206 24
-31 3 234 -33 423 -31 156 -81 326 -125 419 -24 52 -43 77 -78 103 -53 39
-182 92 -244 100 l-43 6 -14 -73z"/>
<path d="M2675 2949 c-76 -11 -183 -43 -262 -79 -65 -30 -213 -127 -213 -140
0 -4 21 -11 47 -15 71 -10 120 -34 152 -72 l28 -34 43 56 c64 83 160 168 255
226 48 29 88 56 91 61 6 10 -61 8 -141 -3z m-235 -139 c65 -35 29 -127 -40
-105 -31 10 -44 42 -30 75 7 16 19 31 28 33 10 3 18 5 20 6 2 0 12 -4 22 -9z"/>
<path d="M2114 2633 c-29 -6 -209 -205 -243 -270 l-12 -23 89 6 c111 8 197
-16 264 -76 l44 -38 23 66 c13 37 35 93 48 124 31 71 26 113 -20 162 -44 46
-115 64 -193 49z m79 -120 c30 -34 31 -70 3 -97 -29 -30 -62 -33 -94 -10 -27
19 -30 78 -5 106 21 23 75 24 96 1z"/>
<path d="M1878 2214 c-42 -18 -62 -61 -91 -189 -18 -77 -34 -255 -23 -255 3 0
30 13 59 29 89 50 156 64 282 59 l110 -5 0 129 0 128 -45 36 c-25 20 -63 45
-85 56 -53 28 -157 34 -207 12z m206 -126 c40 -37 39 -97 -4 -140 -27 -26 -36
-30 -67 -25 -66 11 -102 65 -83 123 7 19 21 41 33 49 32 23 91 19 121 -7z"/>
<path d="M4734 1929 c-70 -86 -172 -180 -239 -222 -46 -28 -53 -37 -69 -92
-64 -216 -245 -463 -434 -588 -143 -96 -342 -171 -534 -202 -36 -6 -38 -8 -38
-43 1 -101 57 -226 138 -309 52 -53 154 -126 193 -138 46 -15 303 82 471 177
359 202 635 546 749 932 27 92 31 119 27 183 -4 64 -12 88 -52 166 -44 87
-128 207 -146 207 -4 0 -34 -32 -66 -71z m76 -234 c36 -18 71 -75 77 -123 15
-119 -139 -216 -238 -149 -111 75 -106 215 11 275 49 25 97 24 150 -3z m-913
-884 c60 -28 98 -89 97 -157 -1 -201 -289 -226 -334 -28 -18 79 27 162 105
189 54 19 82 18 132 -4z"/>
<path d="M1993 1745 c-80 -18 -141 -45 -185 -83 -33 -30 -35 -34 -31 -84 6
-71 46 -212 83 -295 37 -81 111 -213 120 -213 3 0 20 28 36 62 68 145 183 284
268 325 21 9 35 22 32 29 -3 7 -19 59 -36 116 -47 152 -42 144 -96 152 -67 9
-120 6 -191 -9z m112 -155 c26 -26 30 -38 30 -84 0 -64 -26 -99 -85 -117 -102
-31 -194 102 -128 186 48 62 129 68 183 15z"/>
<path d="M2325 1348 c-93 -48 -169 -152 -215 -294 -34 -106 -33 -112 25 -189
82 -110 224 -234 381 -333 80 -50 80 -50 87 90 7 140 29 274 57 357 18 53 18
57 2 69 -90 67 -160 135 -211 204 -34 46 -66 91 -73 100 -12 16 -16 16 -53 -4z
m116 -273 c61 -32 87 -121 55 -183 -21 -41 -89 -76 -133 -67 -72 13 -118 69
-115 142 4 92 109 151 193 108z"/>
<path d="M2759 943 c-41 -108 -60 -349 -37 -458 12 -54 16 -62 51 -78 53 -26
215 -72 327 -92 113 -20 470 -33 470 -17 0 6 -15 20 -34 31 -18 12 -66 55
-106 97 -98 103 -140 192 -147 308 l-6 84 -61 7 c-104 12 -237 51 -340 99 -54
25 -101 46 -103 46 -2 0 -8 -12 -14 -27z m331 -225 c85 -44 101 -135 36 -205
-79 -87 -226 -28 -226 90 0 56 25 96 73 118 54 24 64 24 117 -3z"/>
<path d="M3225 2729 c-84 -12 -146 -34 -250 -88 -72 -37 -109 -65 -186 -141
-86 -85 -102 -107 -147 -200 -69 -142 -86 -227 -80 -389 4 -102 10 -141 32
-206 90 -264 299 -459 567 -526 112 -29 319 -23 419 11 316 107 537 387 557
706 31 502 -410 906 -912 833z"/>
</g>
</svg>
